# xmcd
#
# Track frame offsets: 
#        182
#        12480
#        24315
#        36652
#        49050
#        61437
#        75160
#        87502
#        101820
#        115672
#        129635
#        142547
#        155155
#        166832
#        178830
#        192650
#        205980
#        218022
#        228567
#        241120
#        251952
#        264162
#        276142
#        288500
#        300782
#        311125
#
# Disc length: 4316 seconds
#
# Revision: 1
# Processed by: cddbd v1.5.2PL0 Copyright (c) Steve Scherf et al.
# Submitted via: ExactAudioCopyFreeDBPlugin 1.0
#
DISCID=7010da1a
DTITLE=Smokey Robinson - Smokey Robinson and The Miracles:  The 35th A
DTITLE=nniversary Collection [box set]
DYEAR=1994
DGENRE=Soul
TTITLE0=Got a Job
TTITLE1=I Cry
TTITLE2=Bad Girl
TTITLE3=All I Want is You
TTITLE4=It
TTITLE5=Way Over There (original version)
TTITLE6=The Feeling is So Fine
TTITLE7=(You Can) Depend on Me
TTITLE8=Shop Around (original local Detroit version)
TTITLE9=Who's Lovin' You
TTITLE10=Shop Around (national hit version)
TTITLE11=After All
TTITLE12=Ain't it Baby
TTITLE13=Mighty Good Lovin'
TTITLE14=Broken Hearted
TTITLE15=Everybody's Gotta Pay Some Dues
TTITLE16=That's the Way I Feel
TTITLE17=Determination
TTITLE18=I Had to Cry
TTITLE19=What's So Good About Goodbye
TTITLE20=I've Been Good to You
TTITLE21=I'll Try Something New
TTITLE22=You Never Miss a Good Thing
TTITLE23=If Your Mother Only New
TTITLE24=He Don't Care About Me
TTITLE25=A Love That Can Never Be
EXTD=
EXTT0=
EXTT1=
EXTT2=
EXTT3=
EXTT4=
EXTT5=
EXTT6=
EXTT7=
EXTT8=
EXTT9=
EXTT10=
EXTT11=
EXTT12=
EXTT13=
EXTT14=
EXTT15=
EXTT16=
EXTT17=
EXTT18=
EXTT19=
EXTT20=
EXTT21=
EXTT22=
EXTT23=
EXTT24=
EXTT25=
PLAYORDER=
